<mxfile host="app.diagrams.net" agent="Mozilla/5.0 (Windows NT 10.0; Win64; x64) AppleWebKit/537.36 (KHTML, like Gecko) Chrome/131.0.0.0 Safari/537.36" version="25.0.3">
  <diagram name="第 1 页" id="cIczqU-EAuebv2GSmwTR">
    <mxGraphModel dx="1687" dy="868" grid="1" gridSize="10" guides="1" tooltips="1" connect="1" arrows="1" fold="1" page="1" pageScale="1" pageWidth="827" pageHeight="1169" math="0" shadow="0">
      <root>
        <mxCell id="0" />
        <mxCell id="1" parent="0" />
        <mxCell id="HFa05RSl0NkSJM4xjH95-1" value="&lt;font style=&quot;font-size: 24px;&quot;&gt;ra&lt;/font&gt;" style="rounded=0;whiteSpace=wrap;html=1;fillColor=#fff2cc;strokeColor=#d6b656;" vertex="1" parent="1">
          <mxGeometry x="190" y="367" width="140" height="50" as="geometry" />
        </mxCell>
        <mxCell id="HFa05RSl0NkSJM4xjH95-16" style="edgeStyle=orthogonalEdgeStyle;rounded=0;orthogonalLoop=1;jettySize=auto;html=1;entryX=1;entryY=0;entryDx=0;entryDy=0;exitX=1;exitY=0.5;exitDx=0;exitDy=0;" edge="1" parent="1" source="HFa05RSl0NkSJM4xjH95-2" target="HFa05RSl0NkSJM4xjH95-12">
          <mxGeometry relative="1" as="geometry">
            <Array as="points">
              <mxPoint x="330" y="437" />
              <mxPoint x="440" y="437" />
              <mxPoint x="440" y="317" />
            </Array>
          </mxGeometry>
        </mxCell>
        <mxCell id="HFa05RSl0NkSJM4xjH95-2" value="&lt;font style=&quot;font-size: 24px;&quot;&gt;fp&lt;/font&gt;" style="rounded=0;whiteSpace=wrap;html=1;fillColor=#ffe6cc;strokeColor=#d79b00;" vertex="1" parent="1">
          <mxGeometry x="190" y="417" width="140" height="50" as="geometry" />
        </mxCell>
        <mxCell id="HFa05RSl0NkSJM4xjH95-3" value="&lt;font style=&quot;font-size: 24px;&quot;&gt;local variables&lt;/font&gt;" style="rounded=0;whiteSpace=wrap;html=1;fillColor=#f8cecc;strokeColor=#b85450;" vertex="1" parent="1">
          <mxGeometry x="190" y="467" width="140" height="70" as="geometry" />
        </mxCell>
        <mxCell id="HFa05RSl0NkSJM4xjH95-4" value="&lt;font style=&quot;font-size: 24px;&quot;&gt;save&lt;/font&gt;&lt;div&gt;&lt;font style=&quot;&quot;&gt;&lt;span style=&quot;font-size: 24px;&quot;&gt;register&lt;/span&gt;&lt;/font&gt;&lt;/div&gt;" style="rounded=0;whiteSpace=wrap;html=1;fillColor=#e1d5e7;strokeColor=#9673a6;" vertex="1" parent="1">
          <mxGeometry x="190" y="537" width="140" height="70" as="geometry" />
        </mxCell>
        <mxCell id="HFa05RSl0NkSJM4xjH95-5" value="&lt;font style=&quot;font-size: 24px;&quot;&gt;arguments&lt;/font&gt;" style="rounded=0;whiteSpace=wrap;html=1;fillColor=#dae8fc;strokeColor=#6c8ebf;" vertex="1" parent="1">
          <mxGeometry x="190" y="607" width="140" height="50" as="geometry" />
        </mxCell>
        <mxCell id="HFa05RSl0NkSJM4xjH95-6" value="" style="endArrow=classic;html=1;rounded=0;" edge="1" parent="1">
          <mxGeometry width="50" height="50" relative="1" as="geometry">
            <mxPoint x="420" y="607" as="sourcePoint" />
            <mxPoint x="340" y="607" as="targetPoint" />
          </mxGeometry>
        </mxCell>
        <mxCell id="HFa05RSl0NkSJM4xjH95-7" value="&lt;font style=&quot;font-size: 24px;&quot;&gt;sp&lt;/font&gt;" style="text;html=1;align=center;verticalAlign=middle;whiteSpace=wrap;rounded=0;" vertex="1" parent="1">
          <mxGeometry x="424" y="587" width="60" height="30" as="geometry" />
        </mxCell>
        <mxCell id="HFa05RSl0NkSJM4xjH95-8" value="&lt;font style=&quot;font-size: 24px;&quot;&gt;ra&lt;/font&gt;" style="rounded=0;whiteSpace=wrap;html=1;fillColor=#fff2cc;strokeColor=#d6b656;" vertex="1" parent="1">
          <mxGeometry x="190" y="27" width="140" height="50" as="geometry" />
        </mxCell>
        <mxCell id="HFa05RSl0NkSJM4xjH95-9" value="&lt;font style=&quot;font-size: 24px;&quot;&gt;fp&lt;/font&gt;" style="rounded=0;whiteSpace=wrap;html=1;fillColor=#ffe6cc;strokeColor=#d79b00;" vertex="1" parent="1">
          <mxGeometry x="190" y="77" width="140" height="50" as="geometry" />
        </mxCell>
        <mxCell id="HFa05RSl0NkSJM4xjH95-10" value="&lt;font style=&quot;font-size: 24px;&quot;&gt;local variables&lt;/font&gt;" style="rounded=0;whiteSpace=wrap;html=1;fillColor=#f8cecc;strokeColor=#b85450;" vertex="1" parent="1">
          <mxGeometry x="190" y="127" width="140" height="70" as="geometry" />
        </mxCell>
        <mxCell id="HFa05RSl0NkSJM4xjH95-11" value="&lt;font style=&quot;font-size: 24px;&quot;&gt;save&lt;/font&gt;&lt;div&gt;&lt;font style=&quot;&quot;&gt;&lt;span style=&quot;font-size: 24px;&quot;&gt;register&lt;/span&gt;&lt;/font&gt;&lt;/div&gt;" style="rounded=0;whiteSpace=wrap;html=1;fillColor=#e1d5e7;strokeColor=#9673a6;" vertex="1" parent="1">
          <mxGeometry x="190" y="197" width="140" height="70" as="geometry" />
        </mxCell>
        <mxCell id="HFa05RSl0NkSJM4xjH95-12" value="&lt;font style=&quot;font-size: 24px;&quot;&gt;arguments&lt;/font&gt;" style="rounded=0;whiteSpace=wrap;html=1;fillColor=#dae8fc;strokeColor=#6c8ebf;" vertex="1" parent="1">
          <mxGeometry x="190" y="317" width="140" height="50" as="geometry" />
        </mxCell>
        <mxCell id="HFa05RSl0NkSJM4xjH95-17" value="" style="shape=curlyBracket;whiteSpace=wrap;html=1;rounded=1;labelPosition=left;verticalLabelPosition=middle;align=right;verticalAlign=middle;" vertex="1" parent="1">
          <mxGeometry x="120" y="82" width="20" height="288" as="geometry" />
        </mxCell>
        <mxCell id="HFa05RSl0NkSJM4xjH95-19" value="&lt;font style=&quot;font-size: 24px;&quot;&gt;调用者&lt;/font&gt;" style="text;html=1;align=center;verticalAlign=middle;whiteSpace=wrap;rounded=0;" vertex="1" parent="1">
          <mxGeometry x="20" y="211" width="80" height="30" as="geometry" />
        </mxCell>
        <mxCell id="HFa05RSl0NkSJM4xjH95-20" value="" style="shape=curlyBracket;whiteSpace=wrap;html=1;rounded=1;labelPosition=left;verticalLabelPosition=middle;align=right;verticalAlign=middle;" vertex="1" parent="1">
          <mxGeometry x="120" y="370" width="20" height="288" as="geometry" />
        </mxCell>
        <mxCell id="HFa05RSl0NkSJM4xjH95-21" value="&lt;font style=&quot;font-size: 24px;&quot;&gt;被调用者&lt;/font&gt;" style="text;html=1;align=center;verticalAlign=middle;whiteSpace=wrap;rounded=0;" vertex="1" parent="1">
          <mxGeometry x="20" y="499" width="100" height="30" as="geometry" />
        </mxCell>
        <mxCell id="HFa05RSl0NkSJM4xjH95-22" value="&lt;font style=&quot;font-size: 24px;&quot;&gt;save value&lt;/font&gt;" style="rounded=0;whiteSpace=wrap;html=1;fillColor=#f5f5f5;strokeColor=#666666;fontColor=#333333;" vertex="1" parent="1">
          <mxGeometry x="190" y="267" width="140" height="50" as="geometry" />
        </mxCell>
        <mxCell id="HFa05RSl0NkSJM4xjH95-23" value="" style="endArrow=classic;html=1;rounded=0;entryX=1;entryY=0.5;entryDx=0;entryDy=0;" edge="1" parent="1" target="HFa05RSl0NkSJM4xjH95-22">
          <mxGeometry width="50" height="50" relative="1" as="geometry">
            <mxPoint x="420" y="260" as="sourcePoint" />
            <mxPoint x="470" y="180" as="targetPoint" />
          </mxGeometry>
        </mxCell>
        <mxCell id="HFa05RSl0NkSJM4xjH95-24" value="&lt;span style=&quot;font-size: 24px;&quot;&gt;保留在栈上的变量&lt;/span&gt;" style="text;html=1;align=center;verticalAlign=middle;whiteSpace=wrap;rounded=0;" vertex="1" parent="1">
          <mxGeometry x="430" y="241" width="160" height="30" as="geometry" />
        </mxCell>
        <mxCell id="HFa05RSl0NkSJM4xjH95-25" value="&lt;font style=&quot;font-size: 24px;&quot;&gt;旧sp&lt;/font&gt;" style="text;html=1;align=center;verticalAlign=middle;whiteSpace=wrap;rounded=0;" vertex="1" parent="1">
          <mxGeometry x="440" y="317" width="100" height="30" as="geometry" />
        </mxCell>
      </root>
    </mxGraphModel>
  </diagram>
</mxfile>
